<svg width="20" height="20" viewBox="0 0 20 20" fill="none" xmlns="http://www.w3.org/2000/svg">
<path fill-rule="evenodd" clip-rule="evenodd" d="M18.4679 14.2227C18.4679 14.2227 17.2453 16.3416 14.0666 16.4439C14.0666 16.4439 13.5487 15.8153 13.1173 15.2604C15.0015 14.7193 15.7207 13.521 15.7207 13.521C15.1309 13.9159 14.57 14.1936 14.0666 14.3833C13.3473 14.6901 12.6569 14.8947 11.981 15.0119C10.6001 15.2747 9.33438 15.2016 8.25559 14.997C7.4357 14.8364 6.73097 14.6027 6.14124 14.3684C5.81042 14.237 5.45077 14.0764 5.0912 13.8718L5.03486 13.8391L5.01811 13.8314L4.96178 13.7987L4.9042 13.7547L4.50147 13.5061C4.50147 13.5061 5.19194 14.6759 7.01863 15.2307C6.58714 15.7862 6.05491 16.4439 6.05491 16.4439C2.87618 16.3416 1.66797 14.2227 1.66797 14.2227C1.66797 9.51634 3.73916 5.702 3.73916 5.702C5.81042 4.1237 7.78094 4.16711 7.78094 4.16711L7.92477 4.34254C5.33577 5.10256 4.14189 6.25744 4.14189 6.25744C4.14189 6.25744 4.45838 6.08201 4.99053 5.83343C6.52956 5.14656 7.75219 4.95686 8.25559 4.91285L8.50009 4.88371C9.37747 4.76656 10.3699 4.73742 11.4056 4.85398C12.772 5.01514 14.2391 5.42428 15.735 6.25744C15.735 6.25744 14.5987 5.16143 12.1535 4.40142L12.3549 4.16711C12.3549 4.16711 14.3255 4.1237 16.3967 5.702C16.3967 5.702 18.4679 9.51634 18.4679 14.2227ZM5.91108 11.2409C5.91108 10.3495 6.55832 9.61863 7.3782 9.61863C8.19809 9.61863 8.85973 10.3495 8.84532 11.2409C8.84532 12.1324 8.19809 12.8633 7.3782 12.8633C6.57273 12.8633 5.91108 12.1324 5.91108 11.2409ZM11.1611 11.2409C11.1611 10.3495 11.8083 9.61863 12.6282 9.61863C13.4481 9.61863 14.0953 10.3495 14.0953 11.2409C14.0953 12.1324 13.4481 12.8633 12.6282 12.8633C11.8227 12.8633 11.1611 12.1324 11.1611 11.2409Z" fill="#F5F3F7"/>
</svg>
