<svg width="20" height="20" viewBox="0 0 20 20" fill="none" xmlns="http://www.w3.org/2000/svg">
<path d="M18 5.87136C17.4113 6.1327 16.7787 6.3087 16.1147 6.38803C16.7927 5.98203 17.3133 5.3387 17.558 4.57203C16.924 4.94803 16.2213 5.22136 15.4733 5.3687C14.8753 4.7307 14.0213 4.33203 13.0773 4.33203C10.958 4.33203 9.40067 6.30936 9.87933 8.36203C7.152 8.22536 4.73333 6.9187 3.114 4.9327C2.254 6.40803 2.668 8.33803 4.12933 9.31536C3.592 9.29803 3.08533 9.1507 2.64333 8.9047C2.60733 10.4254 3.69733 11.848 5.276 12.1647C4.814 12.29 4.308 12.3194 3.79333 12.2207C4.21067 13.5247 5.42267 14.4734 6.86 14.5C5.48 15.582 3.74133 16.0654 2 15.86C3.45267 16.7914 5.17867 17.3347 7.032 17.3347C13.1267 17.3347 16.57 12.1874 16.362 7.5707C17.0033 7.10736 17.56 6.52936 18 5.87136V5.87136Z" fill="#F5F3F7"/>
</svg>
